<?xml version="1.0" encoding="UTF-8"?>
<svg width="78px" height="28px" viewBox="0 0 78 28" version="1.1" xmlns="http://www.w3.org/2000/svg" xmlns:xlink="http://www.w3.org/1999/xlink">
    <!-- Generator: Sketch 47.1 (45422) - http://www.bohemiancoding.com/sketch -->
    <title>EPAM_LOGO_Full_Color_RGB</title>
    <desc>Created with Sketch.</desc>
    <defs>
        <polygon id="path-1" points="0.158696809 27.6918451 58.5 27.6918451 58.5 0.288002661 0.158696809 0.288002661"></polygon>
    </defs>
    <g id="Symbols" stroke="none" stroke-width="1" fill="none" fill-rule="evenodd">
        <g id="EPAM_LOGO" transform="translate(-1.000000, -4.000000)">
            <g id="EPAM_LOGO_Full_Color_RGB" transform="translate(1.000000, 4.000000)">
                <g id="Group" transform="translate(11.289474, 0.000000)">
                    <mask id="mask-2" fill="white">
                        <use xlink:href="#path-1"></use>
                    </mask>
                    <g id="Clip-2"></g>
                    <path d="M3.18949468,9.6130618 L7.4964016,9.6130618 L7.4964016,5.03677735 C7.4964016,3.75991366 6.85881383,3.12132614 5.58239362,3.12132614 L5.10381383,3.12132614 C3.82770479,3.12132614 3.18949468,3.75991366 3.18949468,5.03677735 L3.18949468,9.6130618 Z M3.1798484,12.5332531 L3.18949468,17.5666056 C3.18949468,18.8434692 3.82770479,19.4820568 5.10381383,19.4820568 L5.66205319,19.4820568 C6.9384734,19.4820568 7.57637234,18.8434692 7.57637234,17.5666056 L7.57637234,15.0925849 L10.5275106,15.0925849 L10.5275106,17.4470455 C10.5275106,20.6792138 8.89262234,22.3150689 5.66205319,22.3150689 L5.02415426,22.3150689 C1.79358511,22.3150689 0.158696809,20.6792138 0.158696809,17.8253409 L0.158696809,5.53494412 C0.158696809,1.92416913 1.79358511,0.288002661 5.02415426,0.288002661 L5.66205319,0.288002661 C8.89262234,0.288002661 10.5275106,1.92416913 10.5275106,5.15664873 L10.5178644,12.5332531 L3.1798484,12.5332531 L3.1798484,12.5332531 Z" id="Fill-1" fill="#464547" mask="url(#mask-2)"></path>
                    <path d="M15.5277048,18.3247531 C16.3650638,19.0430473 17.3222234,19.4418921 18.3192128,19.4418921 C19.4360027,19.4418921 20.0742128,18.9234873 20.0742128,17.6864769 L20.0742128,4.91721733 C20.0742128,3.67989562 19.4360027,3.16117948 18.3192128,3.16117948 C17.3222234,3.16117948 16.3650638,3.5603356 15.5277048,4.2786298 L15.5277048,18.3247531 Z M12.4965957,0.527434063 L15.5277048,0.527434063 L15.5277048,1.92416913 C16.2455745,1.16602158 17.4818537,0.288002661 19.2365426,0.288002661 C21.8289016,0.288002661 23.1050106,2.00387581 23.1050106,4.55791455 L23.1050106,18.0454684 C23.1050106,20.5991957 21.8289016,22.3150689 19.2365426,22.3150689 C17.4818537,22.3150689 16.2455745,21.4772147 15.5277048,20.7589205 L15.5277048,27.7105263 L12.4965957,27.7105263 L12.4965957,0.527434063 L12.4965957,0.527434063 Z" id="Fill-3" fill="#464547" mask="url(#mask-2)"></path>
                    <path d="M47.4820851,22.0756375 L44.4509761,22.0756375 L44.4509761,4.71763927 C44.4509761,3.64004228 43.9328777,3.16117948 43.0155479,3.16117948 C42.1778777,3.16117948 41.3006888,3.48031756 40.2237287,4.23877646 L40.2237287,22.0756375 L37.1929309,22.0756375 L37.1929309,0.527434063 L40.2237287,0.527434063 L40.2237287,1.92416913 C41.1012287,1.0863149 42.2578484,0.288002661 43.9328777,0.288002661 C45.4881064,0.288002661 46.5249255,0.926590183 47.0831649,2.04404051 C48.160125,1.12616824 49.436234,0.288002661 51.1909229,0.288002661 C53.543992,0.288002661 54.7404415,1.72490242 54.7404415,4.07905174 L54.7404415,22.0756375 L51.7093324,22.0756375 L51.7093324,4.71763927 C51.7093324,3.64004228 51.1909229,3.16117948 50.2735931,3.16117948 C49.436234,3.16117948 48.558734,3.48031756 47.4820851,4.23877646 L47.4820851,22.0756375" id="Fill-6" fill="#464547" mask="url(#mask-2)"></path>
                    <path d="M32.1927367,18.4446245 L32.1927367,11.3367188 L29.4410585,12.3791328 C28.3242686,12.8181422 27.9654894,13.3767117 27.9654894,14.6137221 L27.9654894,17.886055 C27.9654894,18.9234873 28.4838989,19.4418921 29.4410585,19.4418921 C30.3580771,19.4418921 31.1957473,19.122754 32.1927367,18.4446245 Z M24.9343803,14.5738687 C24.9343803,11.90027 25.8118803,10.8229843 28.1248085,10.0249834 L32.1927367,8.62824837 L32.1927367,5.03677735 C32.1927367,3.75991366 31.5545266,3.0814728 30.2784176,3.0814728 L29.7845904,3.0814728 C28.5084814,3.0814728 27.8702713,3.75991366 27.8702713,5.03677735 L27.8702713,8.0886715 L24.919133,8.0886715 L24.919133,5.15664873 C24.919133,1.92416913 26.5543324,0.288002661 29.7845904,0.288002661 L30.3580771,0.288002661 C33.5883351,0.288002661 35.2235346,1.92416913 35.2235346,5.15664873 L35.2235346,22.0756375 L32.1927367,22.0756375 L32.1927367,20.7190671 C31.3553777,21.517068 30.2385878,22.3150689 28.4838989,22.3150689 C26.0511702,22.3150689 24.9343803,20.9183338 24.9343803,18.5243312 L24.9343803,14.5738687 L24.9343803,14.5738687 Z" id="Fill-5" fill="#464547" mask="url(#mask-2)"></path>
                </g>
                <polyline id="Fill-7" fill="#38C2D7" points="8.21052632 3.07894737 8.21052632 6.99546488 2.83264142 11.8026316 8.21052632 16.523934 8.21052632 20.5263158 0 13.2863288 0 10.4047986 8.21052632 3.07894737"></polyline>
                <polyline id="Fill-8" fill="#38C2D7" points="78 10.4047986 78 13.2863288 69.7894737 20.5263158 69.7894737 16.523934 75.1673586 11.8026316 69.7894737 6.99546488 69.7894737 3.07894737 78 10.4047986"></polyline>
            </g>
        </g>
    </g>
</svg>